<svg width="520" height="133" viewBox="0 0 520 133" fill="none" xmlns="http://www.w3.org/2000/svg">
<path d="M519.389 87.0738C519.389 63.0805 502.55 43.1879 478.906 43.1879C453.43 43.1879 437.201 64.1275 437.201 87.9463C437.201 114.819 456.483 132.53 482.134 132.53C495.483 132.53 509.007 126.946 517.383 117.174L504.208 104C500.195 108.362 492.43 113.946 482.57 113.946C470.443 113.946 460.671 105.658 459.45 93.5302H518.866C519.215 91.698 519.389 89.3423 519.389 87.0738ZM495.745 76.7785H460.322C461.369 69.0134 469.134 61.7718 478.732 61.7718C488.154 61.7718 495.047 69.1879 495.745 76.7785ZM427.866 93.7047C428.215 91.698 428.389 89.5168 428.389 87.1611C428.389 63.1678 411.55 43.2752 387.906 43.2752C362.43 43.2752 346.201 64.2148 346.201 88.0336C346.201 114.906 365.483 132.617 391.134 132.617C404.483 132.617 418.007 127.034 426.383 117.262L413.208 104.087C409.195 108.45 401.43 114.034 391.57 114.034C379.443 114.034 369.671 105.745 368.45 93.6174H427.866V93.7047ZM404.745 76.7785H369.322C370.369 69.0134 378.134 61.7718 387.732 61.7718C397.154 61.7718 404.047 69.1879 404.745 76.7785ZM308.51 130.785H331.544V0H308.597L308.51 130.785ZM284.43 130.785V0H261.483V130.785H284.43ZM220.913 130.785H242.987V44.8456H220.913V51.7383C214.195 46.1544 205.557 43.1007 195.785 43.1007C172.49 43.1007 153.557 62.4698 153.557 87.8591C153.557 99.4631 157.745 110.107 164.55 117.872C172.141 126.685 184.094 132.356 196.919 132.356C205.557 132.356 213.758 129.651 220.913 123.718V130.785ZM220.128 100.597C215.765 107.054 208.174 111.242 199.362 111.242C186.362 111.242 176.765 101.295 176.765 87.9463C176.765 75.6443 185.403 64.4765 198.839 64.4765C207.651 64.4765 215.416 68.6644 220.128 75.1208V100.597ZM134.886 118.832C140.295 112.114 143.523 103.302 143.523 90.4765V45.1074H120.577V91.5235C120.577 99.2886 119.094 103.128 116.389 106.181C112.812 110.02 107.926 111.416 103.389 111.416C95.9732 111.416 89.5168 107.577 85.6779 103.651C84.3691 101.121 83.4967 97.8926 83.3222 93.0067C83.3222 92.1342 83.4966 91.5235 83.4966 90.651V45.1074H60.1141V90.4765C60.1141 91.349 60.1141 92.1342 60.2886 92.8322C60.1141 97.7181 59.2416 101.121 57.9329 103.477C54.094 107.315 47.8121 111.242 40.2215 111.242C35.8591 111.242 30.7987 109.933 27.2215 106.007C24.5168 102.953 23.0336 99.1141 23.0336 91.349V45.1074H0V90.4765C0 103.128 3.22819 112.114 8.63758 118.832C15.5302 127.295 26.8725 132.705 38.651 132.705C51.302 132.705 62.1208 126.423 69.0134 119.181L71.5436 117.349L74.0738 119.181C80.9664 126.423 91.7852 132.705 104.436 132.705C116.651 132.705 127.906 127.295 134.886 118.832Z" fill="#11D6CC"/>
</svg>
